<svg width="400" height="300" viewBox="0 0 400 300" fill="none" xmlns="http://www.w3.org/2000/svg">
  <!-- Background elements -->
  <rect x="50" y="50" width="300" height="200" rx="20" fill="#F5F5F5" stroke="#2C2C2C" stroke-width="2"/>
  
  <!-- Learning companion character -->
  <circle cx="150" cy="130" r="50" fill="#E5D0FF" stroke="#2C2C2C" stroke-width="2"/>
  <circle cx="135" cy="120" r="5" fill="#2C2C2C"/>
  <circle cx="165" cy="120" r="5" fill="#2C2C2C"/>
  <path d="M135 150 Q150 165 165 150" stroke="#2C2C2C" stroke-width="3" fill="none"/>
  
  <!-- Student character -->
  <circle cx="250" cy="130" r="40" fill="#FFDA6E" stroke="#2C2C2C" stroke-width="2"/>
  <circle cx="240" cy="120" r="4" fill="#2C2C2C"/>
  <circle cx="260" cy="120" r="4" fill="#2C2C2C"/>
  <path d="M240 140 Q250 150 260 140" stroke="#2C2C2C" stroke-width="2" fill="none"/>
  
  <!-- Speech bubbles -->
  <path d="M180 100 Q200 80 220 100 L220 120 Q200 140 180 120 Z" fill="#BDE7FF" stroke="#2C2C2C" stroke-width="2"/>
  <text x="200" y="115" font-family="Arial" font-size="10" text-anchor="middle" fill="#2C2C2C">Learning!</text>
  
  <!-- Subject icons -->
  <circle cx="100" cy="200" r="15" fill="#FFC8E4" stroke="#2C2C2C" stroke-width="1"/>
  <text x="100" y="204" font-family="Arial" font-size="12" text-anchor="middle" fill="#2C2C2C">C++</text>
  
  <circle cx="140" cy="200" r="15" fill="#FFECC8" stroke="#2C2C2C" stroke-width="1"/>
  <text x="140" y="204" font-family="Arial" font-size="14" text-anchor="middle" fill="#2C2C2C">H</text>
  
  <circle cx="180" cy="200" r="15" fill="#C8FFDF" stroke="#2C2C2C" stroke-width="1"/>
  <text x="180" y="204" font-family="Arial" font-size="14" text-anchor="middle" fill="#2C2C2C">$</text>
  
  <circle cx="220" cy="200" r="15" fill="#E5D0FF" stroke="#2C2C2C" stroke-width="1"/>
  <text x="220" y="204" font-family="Arial" font-size="14" text-anchor="middle" fill="#2C2C2C">⚗️</text>
  
  <circle cx="260" cy="200" r="15" fill="#FFDA6E" stroke="#2C2C2C" stroke-width="1"/>
  <text x="260" y="204" font-family="Arial" font-size="14" text-anchor="middle" fill="#2C2C2C">π</text>
  
  <circle cx="300" cy="200" r="15" fill="#BDE7FF" stroke="#2C2C2C" stroke-width="1"/>
  <text x="300" y="204" font-family="Arial" font-size="14" text-anchor="middle" fill="#2C2C2C">A</text>
  
  <!-- Connection lines -->
  <path d="M150 180 L150 185 L300 185 L300 185" stroke="#2C2C2C" stroke-width="1" stroke-dasharray="4 2"/>
  <path d="M250 170 L250 185" stroke="#2C2C2C" stroke-width="1" stroke-dasharray="4 2"/>
</svg>